<svg xmlns="http://www.w3.org/2000/svg" height="464pt" version="1.1" viewBox="0 -4 464.00199 464" width="464pt">
<g id="surface1">
<path d="M 384 56 C 384 25.074219 298.039062 0 192 0 C 85.960938 0 0 25.074219 0 56 C 0 86.929688 85.960938 112 192 112 C 298.039062 112 384 86.929688 384 56 Z M 384 56 " style=" stroke:none;fill-rule:nonzero;fill:rgb(74.117647%,85.882353%,100%);fill-opacity:1;" />
<path d="M 192 224 C 298 224 384 198.960938 384 168 L 384 56 C 384 86.960938 298 112 192 112 C 86 112 0 86.960938 0 56 L 0 168 C 0 198.960938 86 224 192 224 Z M 192 224 " style=" stroke:none;fill-rule:nonzero;fill:rgb(60.784314%,78.823529%,100%);fill-opacity:1;" />
<path d="M 192 336 C 213.988281 336.023438 235.964844 334.902344 257.839844 332.640625 C 263.125 304.734375 279.597656 280.207031 303.421875 264.75 C 327.25 249.292969 356.363281 244.253906 384 250.800781 L 384 168 C 384 198.960938 298 224 192 224 C 86 224 0 198.960938 0 168 L 0 280 C 0 310.960938 86 336 192 336 Z M 192 336 " style=" stroke:none;fill-rule:nonzero;fill:rgb(34.117647%,64.313725%,100%);fill-opacity:1;" />
<path d="M 256 352 C 256 345.503906 256.613281 339.019531 257.839844 332.640625 C 235.964844 334.902344 213.988281 336.023438 192 336 C 86 336 0 310.960938 0 280 L 0 392 C 0 422.960938 86 448 192 448 C 228.746094 448.253906 265.425781 444.902344 301.519531 438 C 273.042969 418.636719 256 386.4375 256 352 Z M 256 352 " style=" stroke:none;fill-rule:nonzero;fill:rgb(14.117647%,53.333333%,100%);fill-opacity:1;" />
<path d="M 384 250.800781 C 340.917969 240.582031 296.089844 258.761719 272.292969 296.101562 C 248.5 333.441406 250.957031 381.753906 278.414062 416.488281 C 305.871094 451.222656 352.3125 464.765625 394.136719 450.230469 C 435.960938 435.699219 463.996094 396.277344 464 352 C 464.300781 303.703125 431.0625 261.65625 384 250.800781 Z M 360 424 L 360 352 Z M 360 424 " style=" stroke:none;fill-rule:nonzero;fill:rgb(36.862745%,67.45098%,14.117647%);fill-opacity:1;" />
<path d="M 432 360 L 288 360 C 283.582031 360 280 356.417969 280 352 C 280 347.582031 283.582031 344 288 344 L 432 344 C 436.417969 344 440 347.582031 440 352 C 440 356.417969 436.417969 360 432 360 Z M 432 360 " style=" stroke:none;fill-rule:nonzero;fill:rgb(94.509804%,94.901961%,94.901961%);fill-opacity:1;" />
<path d="M 360 432 C 355.582031 432 352 428.417969 352 424 L 352 280 C 352 275.582031 355.582031 272 360 272 C 364.417969 272 368 275.582031 368 280 L 368 424 C 368 428.417969 364.417969 432 360 432 Z M 360 432 " style=" stroke:none;fill-rule:nonzero;fill:rgb(94.509804%,94.901961%,94.901961%);fill-opacity:1;" />
</g>
</svg>